name Run_500 02_newCOP3_v24.mot
datacolumns 19
datarows 120
range 0.03 0.149
DataType=double
version=3
OpenSimVersion=4.3-2021-08-27-4bc7ad9
endheader
time	R_ground_force_vx	R_ground_force_vy	R_ground_force_vz	R_ground_force_px	R_ground_force_py	R_ground_force_pz	L_ground_force_vx	L_ground_force_vy	L_ground_force_vz	L_ground_force_px	L_ground_force_py	L_ground_force_pz	R_ground_torque_x	R_ground_torque_y	R_ground_torque_z	L_ground_torque_x	L_ground_torque_y	L_ground_torque_z
0.03	0	0	0	0	0	0	122.363419	102.947067	-20.256065	0.492316	0	-0.354061	0	0	0	-0	4.427052	-0
0.031	0	0	0	0	0	0	116.236916	98.472855	-19.678074	0.48819	0	-0.353658	0	0	0	-0	4.105204	-0
0.032	0	0	0	0	0	0	109.976898	93.888176	-19.054619	0.483869	0	-0.353114	0	0	0	-0	3.781806	-0
0.033	0	0	0	0	0	0	103.639771	89.22951500000001	-18.379156	0.479336	0	-0.352407	0	0	0	-0	3.45873	-0
0.034	0	0	0	0	0	0	97.277405	84.530579	-17.645409	0.474575	0	-0.351512	0	0	0	-0	3.137887	-0
0.035	0	0	0	0	0	0	90.93792000000001	79.823196	-16.848145	0.469567	0	-0.350396	0	0	0	-0	2.821213	-0
0.036	0	0	0	0	0	0	84.666	75.137794	-15.98373	0.464291	0	-0.34902	0	0	0	-0	2.510638	-0
0.037	0	0	0	0	0	0	78.50282300000001	70.50348700000001	-15.050542	0.458724	0	-0.347337	0	0	0	-0	2.208072	-0
0.038	0	0	0	0	0	0	72.48590900000001	65.948059	-14.049221	0.452841	0	-0.345284	0	0	0	-0	1.915375	-0
0.039	0	0	0	0	0	0	66.648956	61.497749	-12.982811	0.446614	0	-0.342785	0	0	0	-0	1.634334	-0
0.04	0	0	0	0	0	0	61.021645	57.177071	-11.856786	0.440014	0	-0.339741	0	0	0	-0	1.366639	-0
0.041	0	0	0	0	0	0	55.629501	53.00853	-10.678965	0.433008	0	-0.336024	0	0	0	-0	1.113858	-0
0.042	0	0	0	0	0	0	0	0	0	0	0	0	0	0	0	0	0	0
0.043	0	0	0	0	0	0	0	0	0	0	0	0	0	0	0	0	0	0
0.044	0	0	0	0	0	0	0	0	0	0	0	0	0	0	0	0	0	0
0.045	0	0	0	0	0	0	0	0	0	0	0	0	0	0	0	0	0	0
0.046	0	0	0	0	0	0	0	0	0	0	0	0	0	0	0	0	0	0
0.047	0	0	0	0	0	0	0	0	0	0	0	0	0	0	0	0	0	0
0.048	0	0	0	0	0	0	0	0	0	0	0	0	0	0	0	0	0	0
0.049	0	0	0	0	0	0	0	0	0	0	0	0	0	0	0	0	0	0
0.05	0	0	0	0	0	0	0	0	0	0	0	0	0	0	0	0	0	0
0.051	0	0	0	0	0	0	0	0	0	0	0	0	0	0	0	0	0	0
0.052	0	0	0	0	0	0	0	0	0	0	0	0	0	0	0	0	0	0
0.053	0	0	0	0	0	0	0	0	0	0	0	0	0	0	0	0	0	0
0.054	0	0	0	0	0	0	0	0	0	0	0	0	0	0	0	0	0	0
0.055	0	0	0	0	0	0	0	0	0	0	0	0	0	0	0	0	0	0
0.056	0	0	0	0	0	0	0	0	0	0	0	0	0	0	0	0	0	0
0.057	0	0	0	0	0	0	0	0	0	0	0	0	0	0	0	0	0	0
0.058	0	0	0	0	0	0	0	0	0	0	0	0	0	0	0	0	0	0
0.059	0	0	0	0	0	0	0	0	0	0	0	0	0	0	0	0	0	0
0.06	0	0	0	0	0	0	0	0	0	0	0	0	0	0	0	0	0	0
0.061	0	0	0	0	0	0	0	0	0	0	0	0	0	0	0	0	0	0
0.062	0	0	0	0	0	0	0	0	0	0	0	0	0	0	0	0	0	0
0.063	0	0	0	0	0	0	0	0	0	0	0	0	0	0	0	0	0	0
0.064	0	0	0	0	0	0	0	0	0	0	0	0	0	0	0	0	0	0
0.065	0	0	0	0	0	0	0	0	0	0	0	0	0	0	0	0	0	0
0.066	0	0	0	0	0	0	0	0	0	0	0	0	0	0	0	0	0	0
0.067	0	0	0	0	0	0	0	0	0	0	0	0	0	0	0	0	0	0
0.068	0	0	0	0	0	0	0	0	0	0	0	0	0	0	0	0	0	0
0.06900000000000001	0	0	0	0	0	0	0	0	0	0	0	0	0	0	0	0	0	0
0.07000000000000001	0	0	0	0	0	0	0	0	0	0	0	0	0	0	0	0	0	0
0.07099999999999999	0	0	0	0	0	0	0	0	0	0	0	0	0	0	0	0	0	0
0.07199999999999999	0	0	0	0	0	0	0	0	0	0	0	0	0	0	0	0	0	0
0.073	0	0	0	0	0	0	0	0	0	0	0	0	0	0	0	0	0	0
0.074	0	0	0	0	0	0	0	0	0	0	0	0	0	0	0	0	0	0
0.075	0	0	0	0	0	0	0	0	0	0	0	0	0	0	0	0	0	0
0.076	0	0	0	0	0	0	0	0	0	0	0	0	0	0	0	0	0	0
0.077	0	0	0	0	0	0	0	0	0	0	0	0	0	0	0	0	0	0
0.078	0	0	0	0	0	0	0	0	0	0	0	0	0	0	0	0	0	0
0.079	0	0	0	0	0	0	0	0	0	0	0	0	0	0	0	0	0	0
0.08	0	0	0	0	0	0	0	0	0	0	0	0	0	0	0	0	0	0
0.081	0	0	0	0	0	0	0	0	0	0	0	0	0	0	0	0	0	0
0.082	0	0	0	0	0	0	0	0	0	0	0	0	0	0	0	0	0	0
0.083	0	0	0	0	0	0	0	0	0	0	0	0	0	0	0	0	0	0
0.08400000000000001	0	0	0	0	0	0	0	0	0	0	0	0	0	0	0	0	0	0
0.08500000000000001	0	0	0	0	0	0	0	0	0	0	0	0	0	0	0	0	0	0
0.08599999999999999	0	0	0	0	0	0	0	0	0	0	0	0	0	0	0	0	0	0
0.08699999999999999	0	0	0	0	0	0	0	0	0	0	0	0	0	0	0	0	0	0
0.08799999999999999	0	0	0	0	0	0	0	0	0	0	0	0	0	0	0	0	0	0
0.089	0	0	0	0	0	0	0	0	0	0	0	0	0	0	0	0	0	0
0.09	0	0	0	0	0	0	0	0	0	0	0	0	0	0	0	0	0	0
0.091	0	0	0	0	0	0	0	0	0	0	0	0	0	0	0	0	0	0
0.092	0	0	0	0	0	0	0	0	0	0	0	0	0	0	0	0	0	0
0.093	0	0	0	0	0	0	0	0	0	0	0	0	0	0	0	0	0	0
0.094	0	0	0	0	0	0	0	0	0	0	0	0	0	0	0	0	0	0
0.095	0	0	0	0	0	0	0	0	0	0	0	0	0	0	0	0	0	0
0.096	0	0	0	0	0	0	0	0	0	0	0	0	0	0	0	0	0	0
0.097	0	0	0	0	0	0	0	0	0	0	0	0	0	0	0	0	0	0
0.098	0	0	0	0	0	0	0	0	0	0	0	0	0	0	0	0	0	0
0.099	0	0	0	0	0	0	0	0	0	0	0	0	0	0	0	0	0	0
0.1	0	0	0	0	0	0	0	0	0	0	0	0	0	0	0	0	0	0
0.101	0	0	0	0	0	0	0	0	0	0	0	0	0	0	0	0	0	0
0.102	0	0	0	0	0	0	0	0	0	0	0	0	0	0	0	0	0	0
0.103	0	0	0	0	0	0	0	0	0	0	0	0	0	0	0	0	0	0
0.104	0	0	0	0	0	0	0	0	0	0	0	0	0	0	0	0	0	0
0.105	0	0	0	0	0	0	0	0	0	0	0	0	0	0	0	0	0	0
0.106	0	0	0	0	0	0	0	0	0	0	0	0	0	0	0	0	0	0
0.107	0	0	0	0	0	0	0	0	0	0	0	0	0	0	0	0	0	0
0.108	0	0	0	0	0	0	0	0	0	0	0	0	0	0	0	0	0	0
0.109	0	0	0	0	0	0	0	0	0	0	0	0	0	0	0	0	0	0
0.11	0	0	0	0	0	0	0	0	0	0	0	0	0	0	0	0	0	0
0.111	0	0	0	0	0	0	0	0	0	0	0	0	0	0	0	0	0	0
0.112	0	0	0	0	0	0	0	0	0	0	0	0	0	0	0	0	0	0
0.113	0	0	0	0	0	0	0	0	0	0	0	0	0	0	0	0	0	0
0.114	0	0	0	0	0	0	0	0	0	0	0	0	0	0	0	0	0	0
0.115	0	0	0	0	0	0	0	0	0	0	0	0	0	0	0	0	0	0
0.116	0	0	0	0	0	0	0	0	0	0	0	0	0	0	0	0	0	0
0.117	0	0	0	0	0	0	0	0	0	0	0	0	0	0	0	0	0	0
0.118	0	0	0	0	0	0	0	0	0	0	0	0	0	0	0	0	0	0
0.119	0	0	0	0	0	0	0	0	0	0	0	0	0	0	0	0	0	0
0.12	0	0	0	0	0	0	0	0	0	0	0	0	0	0	0	0	0	0
0.121	0	0	0	0	0	0	0	0	0	0	0	0	0	0	0	0	0	0
0.122	0	0	0	0	0	0	0	0	0	0	0	0	0	0	0	0	0	0
0.123	0	0	0	0	0	0	0	0	0	0	0	0	0	0	0	0	0	0
0.124	0	0	0	0	0	0	0	0	0	0	0	0	0	0	0	0	0	0
0.125	0	0	0	0	0	0	0	0	0	0	0	0	0	0	0	0	0	0
0.126	0	0	0	0	0	0	0	0	0	0	0	0	0	0	0	0	0	0
0.127	0	0	0	0	0	0	0	0	0	0	0	0	0	0	0	0	0	0
0.128	-15.649632	54.615028	-0.472648	0.718375	0	-0.373047	0	0	0	0	0	0	0	-1.024828	0	0	0	0
0.129	-17.094599	61.55846	-0.829357	0.403208	0	-0.589109	0	0	0	0	0	0	0	-0.84702	0	0	0	0
0.13	-18.610899	69.29853799999999	-1.275392	1.510444	0	0.175726	0	0	0	0	0	0	0	-0.675357	0	0	0	0
0.131	-20.193096	77.90361799999999	-1.817604	1.079474	0	-0.120318	0	0	0	0	0	0	0	-0.510085	0	0	0	0
0.132	-21.834763	87.44352000000001	-2.461311	1.00061	0	-0.173581	0	0	0	0	0	0	0	-0.35138	0	0	0	0
0.133	-23.528664	97.988632	-3.210078	0.966933	0	-0.195726	0	0	0	0	0	0	0	-0.199344	0	0	0	0
0.134	-25.266981	109.60891	-4.065543	0.947946	0	-0.207781	0	0	0	0	0	0	0	-0.054028	0	0	0	0
0.135	-27.041594	122.372643	-5.027278	0.935568	0	-0.215315	0	0	0	0	0	0	-0	0.084567	-0	0	0	0
0.136	-28.844362	136.345261	-6.092689	0.926733	0	-0.220437	0	0	0	0	0	0	-0	0.216473	-0	0	0	0
0.137	-30.667461	151.587891	-7.256967	0.920024	0	-0.224123	0	0	0	0	0	0	-0	0.341749	-0	0	0	0
0.138	-32.503716	168.156021	-8.513078999999999	0.914693	0	-0.226886	0	0	0	0	0	0	-0	0.46047	-0	0	0	0
0.139	-34.346935	186.097946	-9.851800000000001	0.910308	0	-0.22902	0	0	0	0	0	0	-0	0.572716	-0	0	0	0
0.14	-36.192234	205.453293	-11.261796	0.906603	0	-0.230708	0	0	0	0	0	0	-0	0.678569	-0	0	0	0
0.141	-38.036377	226.251617	-12.729741	0.903404	0	-0.232067	0	0	0	0	0	0	-0	0.778102	-0	0	0	0
0.142	-39.878056	248.51091	-14.240479	0.900591	0	-0.233178	0	0	0	0	0	0	-0	0.871374	-0	0	0	0
0.143	-41.718159	272.236328	-15.777219	0.898082	0	-0.234096	0	0	0	0	0	0	-0	0.9584279999999999	-0	0	0	0
0.144	-43.560005	297.418884	-17.321774	0.895815	0	-0.234861	0	0	0	0	0	0	-0	1.039284	-0	0	0	0
0.145	-45.409531	324.034515	-18.854824	0.893746	0	-0.235504	0	0	0	0	0	0	-0	1.11394	-0	0	0	0
0.146	-47.275421	352.043091	-20.356207	0.89184	0	-0.236047	0	0	0	0	0	0	-0	1.18237	-0	0	0	0
0.147	-49.169205	381.387756	-21.805246	0.89007	0	-0.236507	0	0	0	0	0	0	-0	1.244521	-0	0	0	0
0.148	-51.10524	411.994507	-23.181087	0.888416	0	-0.236897	0	0	0	0	0	0	-0	1.30032	-0	0	0	0
0.149	-53.100655	443.772034	-24.463053	0.88686	0	-0.237228	0	0	0	0	0	0	-0	1.349673	-0	0	0	0
